REM DIRINDEX 1\8,1\2\11,1\3\12,1\3\14,1\5\15,1\5\16,1\6\17,1\6\18,1\4\19,1\4\20,1\4\21,1\4\22,1\7\23,1\7\24,1\7\25,1\2\9\26,1\2\9\27,1\2\10\28,1\2\10\29,1\2\10\30,1\2\10\31,1\2\10\32,1\3\13\33,1\3\13\34,1\3\13\35
REM DIRNAME cjc123,folder01,folder02,folder03,folder04,folder05,folder06,folder07,folder08,folder09,folder10,folder11,folder12,folder13,folder14,folder15,folder16,folder17,folder18,folder19,folder20,folder21,folder22,folder23,folder24,folder25,folder26,folder27,folder28,folder29,folder30,folder31,folder32,folder33,folder34
TITLE ""
FILE "167 167_熟語UNIT6_SET5.mp3" MP3
  TRACK 01 AUDIO
    TITLE "25:cjc123_4629"
    INDEX 01 00:00:00
  TRACK 02 AUDIO
    TITLE "0:"
    INDEX 01 00:02:67
  TRACK 03 AUDIO
    TITLE "23:cjc123_4630"
    INDEX 01 00:03:39
  TRACK 04 AUDIO
    TITLE "0:"
    INDEX 01 00:04:74
  TRACK 05 AUDIO
    TITLE "24:cjc123_4631"
    INDEX 01 00:06:37
  TRACK 06 AUDIO
    TITLE "0:"
    INDEX 01 00:07:62
  TRACK 07 AUDIO
    TITLE "23:cjc123_4632"
    INDEX 01 00:10:23
  TRACK 08 AUDIO
    TITLE "0:"
    INDEX 01 00:11:66
  TRACK 09 AUDIO
    TITLE "24:cjc123_4633"
    INDEX 01 00:13:49
  TRACK 10 AUDIO
    TITLE "0:"
    INDEX 01 00:15:09
  TRACK 11 AUDIO
    TITLE "23:cjc123_4634"
    INDEX 01 00:16:73
  TRACK 12 AUDIO
    TITLE "0:"
    INDEX 01 00:18:23
  TRACK 13 AUDIO
    TITLE "24:cjc123_4635"
    INDEX 01 00:19:63
  TRACK 14 AUDIO
    TITLE "0:"
    INDEX 01 00:21:11
  TRACK 15 AUDIO
    TITLE "23:cjc123_4636"
    INDEX 01 00:22:48
  TRACK 16 AUDIO
    TITLE "0:"
    INDEX 01 00:24:06
  TRACK 17 AUDIO
    TITLE "24:cjc123_4637"
    INDEX 01 00:25:48
  TRACK 18 AUDIO
    TITLE "0:"
    INDEX 01 00:26:66
  TRACK 19 AUDIO
    TITLE "23:cjc123_4638"
    INDEX 01 00:28:23
  TRACK 20 AUDIO
    TITLE "0:"
    INDEX 01 00:29:34
  TRACK 21 AUDIO
    TITLE "24:cjc123_4639"
    INDEX 01 00:30:73
  TRACK 22 AUDIO
    TITLE "0:"
    INDEX 01 00:32:25
  TRACK 23 AUDIO
    TITLE "23:cjc123_4640"
    INDEX 01 00:33:71
  TRACK 24 AUDIO
    TITLE "0:"
    INDEX 01 00:35:06
  TRACK 25 AUDIO
    TITLE "24:cjc123_4641"
    INDEX 01 00:36:40
  TRACK 26 AUDIO
    TITLE "0:"
    INDEX 01 00:37:59
  TRACK 27 AUDIO
    TITLE "23:cjc123_4642"
    INDEX 01 00:39:25
  TRACK 28 AUDIO
    TITLE "0:"
    INDEX 01 00:40:50
  TRACK 29 AUDIO
    TITLE "24:cjc123_4643"
    INDEX 01 00:42:23
  TRACK 30 AUDIO
    TITLE "0:"
    INDEX 01 00:43:46
  TRACK 31 AUDIO
    TITLE "23:cjc123_4644"
    INDEX 01 00:45:30
  TRACK 32 AUDIO
    TITLE "0:"
    INDEX 01 00:46:60
  TRACK 33 AUDIO
    TITLE "24:cjc123_4645"
    INDEX 01 00:48:30
  TRACK 34 AUDIO
    TITLE "0:"
    INDEX 01 00:49:59
  TRACK 35 AUDIO
    TITLE "23:cjc123_4646"
    INDEX 01 00:51:38
  TRACK 36 AUDIO
    TITLE "0:"
    INDEX 01 00:52:59
  TRACK 37 AUDIO
    TITLE "24:cjc123_4647"
    INDEX 01 00:54:36
  TRACK 38 AUDIO
    TITLE "0:"
    INDEX 01 00:55:73
  TRACK 39 AUDIO
    TITLE "23:cjc123_4648"
    INDEX 01 00:57:56
  TRACK 40 AUDIO
    TITLE "0:"
    INDEX 01 00:59:43
  TRACK 41 AUDIO
    TITLE "24:cjc123_4649"
    INDEX 01 01:01:27
  TRACK 42 AUDIO
    TITLE "0:"
    INDEX 01 01:02:65
  TRACK 43 AUDIO
    TITLE "23:cjc123_4650"
    INDEX 01 01:04:64
  TRACK 44 AUDIO
    TITLE "0:"
    INDEX 01 01:06:51
  TRACK 45 AUDIO
    TITLE "24:cjc123_4651"
    INDEX 01 01:08:36
  TRACK 46 AUDIO
    TITLE "0:"
    INDEX 01 01:10:08
  TRACK 47 AUDIO
    TITLE "23:cjc123_4652"
    INDEX 01 01:11:72
  TRACK 48 AUDIO
    TITLE "0:"
    INDEX 01 01:14:57
  TRACK 49 AUDIO
    TITLE "24:cjc123_4653"
    INDEX 01 01:16:73
  TRACK 50 AUDIO
    TITLE "0:"
    INDEX 01 01:19:03
  TRACK 51 AUDIO
    TITLE "23:cjc123_4654"
    INDEX 01 01:21:21
  TRACK 52 AUDIO
    TITLE "0:"
    INDEX 01 01:22:62
  TRACK 53 AUDIO
    TITLE "24:cjc123_4655"
    INDEX 01 01:24:16
  TRACK 54 AUDIO
    TITLE "0:"
    INDEX 01 01:25:35
  TRACK 55 AUDIO
    TITLE "23:cjc123_4656"
    INDEX 01 01:26:72
  TRACK 56 AUDIO
    TITLE "0:"
    INDEX 01 01:28:45
  TRACK 57 AUDIO
    TITLE "24:cjc123_4657"
    INDEX 01 01:30:07
  TRACK 58 AUDIO
    TITLE "0:"
    INDEX 01 01:31:30
  TRACK 59 AUDIO
    TITLE "23:cjc123_4658"
    INDEX 01 01:32:68
  TRACK 60 AUDIO
    TITLE "0:"
    INDEX 01 01:34:36
  TRACK 61 AUDIO
    TITLE "24:cjc123_4659"
    INDEX 01 01:37:17
  TRACK 62 AUDIO
    TITLE "0:"
    INDEX 01 01:39:51
